# xmcd CD database file
#
# Track frame offsets:
#	150
#	17308
#	40886
#	56936
#	84319
#	117600
#	129390
#	161860
#	189786
#
# Disc length: 2890 seconds
#
# Revision: 0
# Processed by: cddbd v1.4PL0 Copyright (c) Steve Scherf et al.
# Submitted via: CDex 1.51
#
DISCID=6f0b4809
DTITLE=Mark Stanley Quartet - Humans
DYEAR=2003
DGENRE=Jazz
TTITLE0=Cat Cat Cat
TTITLE1=Small Face
TTITLE2=God on a Stick
TTITLE3=Horrible Helga
TTITLE4=Humans
TTITLE5=Pussy
TTITLE6=Blue Octopus
TTITLE7=Paramour
TTITLE8=Diaspora
EXTD=YEAR: 2003
EXTT0=
EXTT1=
EXTT2=
EXTT3=
EXTT4=
EXTT5=
EXTT6=
EXTT7=
EXTT8=
PLAYORDER=
